<svg id="Layer_1" data-name="Layer 1" xmlns="http://www.w3.org/2000/svg" viewBox="0 0 2560 1440"><defs><style>.cls-1{fill:none;stroke:#000;stroke-miterlimit:10;stroke-width:3px;opacity:0.5;}</style></defs><title>background_lines</title><path class="cls-1" d="M-.46,1187.22C41,1187,82,1181,123,1171c52-14,100-30,148-55,12-7,23-13,35-20,5-3,9-6,14-9,20-16,39-30,58-47,11-9,20-19,30-29l9-12c1-1,3-2,4-3,10-12,20-22,29-35,11-17,23-30,33-47,13-21,25-41,36-63,23-47,44-93,64-141,6-14,12-29,18-43a1185.51,1185.51,0,0,1,69-144c12-21,26-38,40-57,26-34,55-59,91-82,45-28,93-42,144-45,53-2,105,9,156,26l12,6c18,5,34,13,51,21,70,30,135,66,205,96,14,6,28,11,42,18,2,1,3,0,5,1,29,12,59,20,89,28,25,8,49,12,74,16,83,10,166,4,243-27,2-1,3,0,5-1,5-3,11-4,17-6,41-17,79-35,117-62,4-2,8-5,12-7,23-16,43-30,63-49,16-15,31-30,47-45,11-12,22-23,33-35l12-15c1-1,3-2,4-3,23-30,43-56,65-86,21-30,40-56,58-86,5-9,9-17,15-25,1-2,1-4,2-5,3-4,5-8,8-12,2-3,2-6,4-9,5-7,8-14,13-21,2-4,4-9,6-13,11-18,20-36,29.09-54.93"/><path class="cls-1" d="M-2.86,1304.81C145,1314,296,1299,436,1244c2,0,5,0,7-1,18-9,35-16,53-25,19-12,37-22,56-35,35-25,63-51,91-82,2-3,3-6,5-9,6-7,12-13,18-20,9-14,17-27,25-41,10-19,20-36,30-54,24-39,50-73,83-104,7-8,15-15,23-23,48-41,99-73,160-91,22-6,42-12,64-16,13-2,25-4,37-5,11-1,22-1,33-2,35-1,68,2,103,7,32,5,60,15,92,22,2,1,4,3,7,4a264.28,264.28,0,0,1,40,12c39,14,77,25,117,36,89,27,174,50,267,64a159.85,159.85,0,0,1,21,5c6,1,11,1,17,2,5,1,11,3,16,4,39,5,77,10,116,14,6,1,13,2,19,3,69,7,136,10,205,8,25-1,50-2,76-6,12-2,23-3,34-5,6,0,12-2,18-2,27-4,51-11,78-16,6-1,10-4,16-6a272.21,272.21,0,0,0,55-18c2-1,3,0,5-1,7-5,15-6,23-9,20-9,40-19,57-34,23-10,42-27,60.61-42.58"/></svg>